<svg t="1688627056035" class="icon" viewBox="0 0 1024 1024" version="1.1"
  xmlns="http://www.w3.org/2000/svg" p-id="2671" width="200" height="200">
  <path d="M928 212.8h-115.2c12.8-12.8 25.6-25.6 30.4-38.4 8-25.6 12.8-68.8-43.2-123.2S689.6-4.8 659.2 4.8c-68.8 17.6-120 94.4-145.6 153.6-30.4-59.2-76.8-136-145.6-153.6-33.6-8-84.8-8-140.8 46.4-56 51.2-56 94.4-46.4 123.2 8 12.8 17.6 25.6 30.4 38.4H96c-25.6 0-51.2 25.6-51.2 51.2v192c0 30.4 25.6 56 56 56h30.4v460.8c0 25.6 25.6 51.2 51.2 51.2h660.8c30.4 0 51.2-25.6 51.2-51.2V512h30.4c30.4 0 56-25.6 56-56v-192c3.2-25.6-22.4-51.2-52.8-51.2z m-248-128h8c8 0 25.6 4.8 51.2 25.6 17.6 17.6 20.8 30.4 20.8 30.4-4.8 17.6-81.6 43.2-174.4 56 27.2-48 60.8-99.2 94.4-112zM283.2 115.2c25.6-20.8 43.2-25.6 51.2-25.6h8c33.6 8 68.8 59.2 89.6 110.4-94.4-12.8-171.2-33.6-174.4-56 4.8-3.2 9.6-11.2 25.6-28.8zM129.6 299.2h340.8v128H129.6v-128zM214.4 512h256v427.2h-256V512z m598.4 427.2h-256V512h256v427.2z m84.8-512H556.8v-128h340.8v128z" p-id="2672" fill="#8a8a8a"></path>
</svg>